<?xml version="1.0" encoding="UTF-8"?>
<svg width="100" height="100" viewBox="0 0 100 100" fill="none" xmlns="http://www.w3.org/2000/svg">
    <g opacity="0.5">
        <!-- Dollar signs -->
        <path d="M20 40C20 37.7909 21.7909 36 24 36H28C30.2091 36 32 37.7909 32 40V44C32 46.2091 30.2091 48 28 48H24C21.7909 48 20 46.2091 20 44V40Z" fill="currentColor"/>
        <path d="M26 34V36M26 48V50" stroke="currentColor" stroke-width="2" stroke-linecap="round"/>
        
        <path d="M60 70C60 67.7909 61.7909 66 64 66H68C70.2091 66 72 67.7909 72 70V74C72 76.2091 70.2091 78 68 78H64C61.7909 78 60 76.2091 60 74V70Z" fill="currentColor"/>
        <path d="M66 64V66M66 78V80" stroke="currentColor" stroke-width="2" stroke-linecap="round"/>
        
        <!-- Graph lines -->
        <path d="M80 20L90 30M70 40L80 50M30 60L40 70" stroke="currentColor" stroke-width="2"/>
        <path d="M10 80L20 90M40 10L50 20M70 80L80 90" stroke="currentColor" stroke-width="2"/>
        
        <!-- Circles -->
        <circle cx="15" cy="15" r="3" fill="currentColor"/>
        <circle cx="85" cy="85" r="3" fill="currentColor"/>
        <circle cx="45" cy="45" r="3" fill="currentColor"/>
    </g>
</svg>
